HIERARCHY
ROOT Hips
{
	OFFSET 0.0000 0.0000 0.0000
	CHANNELS 6 Xposition Yposition Zposition Zrotation Xrotation Yrotation
	JOINT Ab
	{
		OFFSET -0.0000 8.1305 -0.0000
		CHANNELS 3 Zrotation Xrotation Yrotation
		JOINT Chest
		{
			OFFSET -0.0000 26.2902 -0.0000
			CHANNELS 3 Zrotation Xrotation Yrotation
			JOINT Neck
			{
				OFFSET -0.0000 26.2902 0.0000
				CHANNELS 3 Zrotation Xrotation Yrotation
				JOINT Head
				{
					OFFSET -0.0000 10.8167 0.0000
					CHANNELS 3 Zrotation Xrotation Yrotation
					End Site
					{
						OFFSET -0.0000 16.7167 0.0000
					}
				}
			}
			JOINT LeftCollar
			{
				OFFSET -0.0000 26.2902 0.0000
				CHANNELS 3 Zrotation Xrotation Yrotation
				JOINT LeftShoulder
				{
					OFFSET 19.6667 -0.0000 0.0000
					CHANNELS 3 Zrotation Xrotation Yrotation
					JOINT LeftElbow
					{
						OFFSET 27.2190 0.0000 0.0000
						CHANNELS 3 Zrotation Xrotation Yrotation
						JOINT LeftWrist
						{
							OFFSET 30.7431 0.0000 0.0000
							CHANNELS 3 Zrotation Xrotation Yrotation
							End Site
							{
								OFFSET 0.0000 -14.7500 0.0000
							}
						}
					}
				}
			}
			JOINT RightCollar
			{
				OFFSET -0.0000 26.2902 0.0000
				CHANNELS 3 Zrotation Xrotation Yrotation
				JOINT RightShoulder
				{
					OFFSET -19.6667 0.0000 0.0000
					CHANNELS 3 Zrotation Xrotation Yrotation
					JOINT RightElbow
					{
						OFFSET -27.2190 0.0000 0.0000
						CHANNELS 3 Zrotation Xrotation Yrotation
						JOINT RightWrist
						{
							OFFSET -30.7431 0.0000 0.0000
							CHANNELS 3 Zrotation Xrotation Yrotation
							End Site
							{
								OFFSET -0.0000 -14.7500 0.0000
							}
						}
					}
				}
			}
		}
	}
	JOINT LeftHip
	{
		OFFSET 11.8000 0.0000 0.0000
		CHANNELS 3 Zrotation Xrotation Yrotation
		JOINT LeftKnee
		{
			OFFSET -0.0000 -39.7832 0.0000
			CHANNELS 3 Zrotation Xrotation Yrotation
			JOINT LeftAnkle
			{
				OFFSET -0.0000 -41.7317 0.0000
				CHANNELS 3 Zrotation Xrotation Yrotation
				End Site
				{
					OFFSET -0.0000 -4.9167 16.7167
				}
			}
		}
	}
	JOINT RightHip
	{
		OFFSET -11.8000 0.0000 0.0000
		CHANNELS 3 Zrotation Xrotation Yrotation
		JOINT RightKnee
		{
			OFFSET -0.0000 -39.7832 0.0000
			CHANNELS 3 Zrotation Xrotation Yrotation
			JOINT RightAnkle
			{
				OFFSET -0.0000 -41.7317 0.0000
				CHANNELS 3 Zrotation Xrotation Yrotation
				End Site
				{
					OFFSET -0.0000 -4.9167 16.7167
				}
			}
		}
	}
}
MOTION
Frames: 19
Frame Time: 0.010000
-5.5256 91.6364 92.1285 356.2831 348.8044 192.3335 359.9615 349.2082 0.7015 4.1718 16.9575 0.0742 353.5801 352.0796 353.7568 5.2825 14.8486 353.5078 340.3680 357.5798 13.9585 330.6682 62.9901 325.2602 11.9594 355.8658 322.1119 89.0638 353.8630 350.8896 26.6110 356.4097 344.8717 33.4503 49.4953 18.3062 336.7517 351.9634 37.7463 268.4089 354.3588 4.5200 352.3261 346.9216 0.9564 357.0503 11.1859 4.5840 357.6585 354.2936 14.6235 352.8400 350.2993 1.1800 12.2137 22.3825 17.5348 347.1130 336.5083 311.2379 
-5.6674 91.6216 91.8691 356.2300 348.8956 192.2025 359.8121 349.2270 0.6623 4.0622 16.9440 0.0692 353.5593 352.1646 353.7917 5.3204 14.8152 353.5355 340.3956 357.5783 13.9401 330.6471 63.0137 325.2504 12.0766 355.8254 322.3489 89.6174 354.0224 351.2229 26.5920 356.3755 344.7223 33.7344 49.6320 18.1449 336.6991 351.9679 37.5677 268.4931 354.3488 4.3888 352.2581 347.1222 1.1475 357.0488 11.3079 4.6416 357.7962 354.2765 14.5857 352.7995 350.4257 1.1004 12.0930 22.6855 17.7167 347.1515 336.3003 311.1891 
-5.8064 91.6026 91.6127 356.2010 348.9950 192.0741 359.6845 349.2769 0.6349 3.9600 16.8808 0.0668 353.5308 352.2741 353.8379 5.3216 14.8225 353.5768 340.3981 357.5808 13.9227 330.7040 63.0296 325.1961 12.1640 355.8046 322.4976 90.4054 354.3315 352.0674 26.5624 356.3573 344.6371 34.1932 49.7125 17.7496 336.6555 351.9840 37.4633 268.5334 354.3422 4.3377 352.2328 347.3388 1.4000 357.0285 11.4208 4.5500 358.0154 354.2530 14.5704 352.7935 350.5532 1.0894 11.9718 22.9833 17.8640 347.2053 336.1016 311.1400 
-5.9418 91.5811 91.3456 356.2338 349.1158 192.0123 359.6177 349.3197 0.5614 3.8337 16.8249 0.0519 353.6093 352.4069 353.8764 5.2324 14.8394 353.6120 340.4164 357.5942 13.8605 330.6811 62.9815 325.2617 12.2100 355.8359 322.7089 90.2340 354.3241 352.0273 26.4783 356.3493 344.4576 34.6699 49.9025 17.4658 336.5365 351.9547 37.3077 268.5674 354.3497 4.1429 352.3028 347.5944 1.5735 356.9561 11.5007 4.4267 358.2246 354.2058 14.5720 352.8540 350.7333 1.1033 11.8709 23.2172 17.9030 347.2580 335.9282 311.1084 
-6.0808 91.5544 91.0796 356.2837 349.2432 191.9678 359.5654 349.3811 0.5157 3.7322 16.7535 0.0162 353.6031 352.5208 353.9414 5.1771 14.9052 353.6779 340.3984 357.6004 13.8778 330.7961 62.9372 325.1825 12.2607 355.8573 322.8878 90.1450 354.3708 352.0861 26.3732 356.3407 344.3498 35.2004 50.0757 17.0931 336.4138 351.9331 37.1645 268.6237 354.2242 3.8583 352.4075 347.8777 1.5997 356.8396 11.5262 4.6123 358.5010 354.1526 14.4038 352.9360 350.9015 1.1179 11.7982 23.4689 17.8292 347.3080 335.7082 311.0800 
-6.2269 91.5321 90.8284 356.2788 349.3065 191.8474 359.4563 349.4112 0.4999 3.6414 16.6537 0.0423 353.5618 352.6702 354.0039 5.0913 14.9673 353.7422 340.3650 357.5862 13.8767 330.8311 62.8710 325.2173 12.2858 355.8866 322.9578 90.0407 354.5231 352.1207 26.3315 356.3109 344.2922 35.6489 50.1843 16.6304 336.3607 351.9514 37.0745 268.6676 354.1326 3.6548 352.4356 348.0985 1.7753 356.7701 11.5725 4.6355 358.7313 354.0514 14.2830 352.9427 350.9550 1.2162 11.7207 23.8026 17.8651 347.3977 335.5152 310.9782 
-6.3784 91.5021 90.5726 356.2678 349.3881 191.7203 359.3593 349.4539 0.4798 3.5299 16.5546 0.0521 353.5077 352.8640 354.0587 5.0828 14.9980 353.7893 340.3704 357.5718 13.8700 330.9263 62.8940 325.1592 12.3559 355.8684 323.0470 89.8327 354.4395 352.0516 26.2937 356.3164 344.2765 36.1897 50.2254 16.0560 336.3772 351.9716 37.0736 268.6490 354.1903 3.5976 352.4636 348.3688 1.9562 356.6811 11.5736 4.6260 358.7527 353.9541 14.2363 352.9312 351.0109 1.3484 11.6866 24.1631 17.9568 347.3851 335.3837 310.7996 
-6.5291 91.4681 90.3232 356.2591 349.4724 191.5736 359.2482 349.4973 0.4707 3.4500 16.4911 0.0727 353.4631 352.9543 354.1207 5.0032 15.1347 353.8527 340.3418 357.5720 13.9354 331.2621 62.8789 324.8418 12.3131 355.8813 323.0626 90.0197 354.4729 352.2806 26.2299 356.3076 344.2425 36.6492 50.3175 15.6322 336.3475 351.9752 36.9888 268.7620 354.1282 3.7205 352.5014 348.6510 2.1614 356.5929 11.5484 4.6133 358.9213 353.8791 14.1791 352.9159 351.0137 1.5310 11.6952 24.6122 17.9324 347.4001 335.2037 310.6796 
-6.6786 91.4299 90.0767 356.2379 349.5417 191.4230 359.1377 349.5089 0.4463 3.3458 16.4540 0.0605 353.4110 353.1160 354.1975 4.9527 15.1853 353.9286 340.3161 357.5456 13.9910 331.5364 62.8270 324.6238 12.3547 355.8715 323.0600 89.8045 354.3850 352.2582 26.2020 356.2955 344.2338 37.0167 50.3543 15.2386 336.4396 352.0421 36.9783 268.7709 354.0775 3.8653 352.5139 348.9306 2.3925 356.5243 11.5025 4.6155 359.1814 353.8182 14.0663 352.8798 350.9602 1.7106 11.7232 25.1421 17.8949 347.4246 334.9937 310.5678 
-6.8283 91.3857 89.8333 356.2135 349.6086 191.2706 359.0316 349.4786 0.3995 3.2399 16.4921 0.0141 353.3692 353.2783 354.3067 4.8800 15.2087 354.0410 340.2773 357.5565 14.0256 331.6555 62.6324 324.6024 12.2475 355.9101 322.8981 89.8475 354.5087 352.0509 26.2312 356.3170 344.3660 37.4143 50.2462 14.7355 336.6067 352.1020 37.0414 268.8353 354.1192 3.9720 352.5134 349.2191 2.5819 356.4545 11.4381 4.5906 359.3233 353.7180 14.0126 352.8371 350.8435 1.7899 11.6833 25.8194 18.0071 347.5862 334.7789 310.4926 
-6.9768 91.3415 89.5970 356.1824 349.6629 191.1191 358.9406 349.5099 0.3795 3.0951 16.4435 0.0242 353.4446 353.3196 354.4783 4.6763 15.2350 354.2367 340.2627 357.5407 14.1123 331.8371 62.5190 324.4641 12.2677 355.8499 322.7213 89.8356 354.6821 352.2082 26.2727 356.3157 344.3839 37.6382 50.2253 14.4290 336.7131 352.1092 37.0749 268.7914 354.1303 4.0045 352.5018 349.4793 2.7766 356.3822 11.4099 4.4774 359.5809 353.6114 14.0052 352.7490 350.6822 1.8514 11.6689 26.5665 18.2171 347.7914 334.6738 310.4640 
-7.1452 91.2953 89.3559 356.1091 349.7685 190.9801 358.7981 349.5195 0.3210 3.0013 16.5317 359.9903 353.4243 353.4794 354.5779 4.5822 15.1945 354.3488 340.2282 357.5156 14.1103 331.8846 62.3543 324.4951 12.2774 355.8189 322.5210 89.9577 354.7872 352.4208 26.3137 356.3223 344.4094 37.6597 50.3631 14.3122 336.7544 352.1442 37.0222 268.9279 354.2746 4.0361 352.4197 349.8397 2.8305 356.3121 11.3034 4.4812 359.7859 353.5288 14.0170 352.6114 350.5428 1.9507 11.7703 27.3617 18.2081 347.9257 334.4412 310.3952 
-7.2796 91.2304 89.1192 356.0264 349.8960 190.7345 358.6340 349.6062 0.3090 2.9241 16.5681 0.0144 353.2303 353.6122 354.7184 4.6720 15.1757 354.4697 340.2112 357.5480 13.9610 330.9352 61.8583 325.6492 12.1954 355.8324 322.0728 89.6501 354.6295 351.7810 26.2966 356.3612 344.4791 37.8539 50.4338 14.1007 336.8190 352.1742 37.0201 268.9543 354.2236 4.2361 352.3842 350.2058 3.0371 356.2301 11.2134 4.5070 359.7177 353.3400 14.0552 352.4968 350.3251 2.2682 12.0220 28.2116 17.9511 348.0465 334.2430 310.3265 
-7.4300 91.1731 88.9025 355.9650 349.9606 190.5789 358.4914 349.5813 0.2500 2.8360 16.7103 359.9685 353.2334 353.6496 354.8251 4.5150 15.2312 354.5954 340.1484 357.5505 14.0029 331.2147 61.6299 325.4154 12.2218 355.7726 321.8715 89.7886 354.7429 351.7077 26.4441 356.3743 344.7437 38.1343 50.1391 13.5910 337.0093 352.2299 37.1702 269.1155 354.0765 4.4226 352.3100 350.5149 3.0072 356.1466 11.0709 4.6942 359.8164 353.2651 14.0060 352.3369 350.0049 2.3335 12.2326 29.1924 17.7968 348.1410 334.0130 310.3086 
-7.5924 91.1164 88.6942 355.9039 349.9850 190.4570 358.3918 349.5649 0.1868 2.6925 16.7762 359.9311 353.1761 353.7647 354.9371 4.4593 15.1994 354.7143 340.0975 357.5166 14.0714 331.4584 61.4496 325.2307 12.3051 355.7259 321.6980 89.7531 354.7879 351.8801 26.5028 356.3902 344.8081 38.2128 50.1781 13.4582 337.0420 352.2278 37.1642 269.3041 354.0343 4.6094 352.2112 350.7780 2.8840 356.0589 10.9457 4.8505 359.9398 353.1549 14.0415 352.1406 349.6294 2.3129 12.4544 30.2007 17.6467 348.4281 333.8536 310.3825 
-7.7432 91.0563 88.4847 355.8553 350.0105 190.3185 358.2665 349.5222 0.1628 2.6044 16.8966 359.9438 353.0539 353.7564 355.0588 4.4468 15.3521 354.8342 340.0189 357.5037 14.0962 331.7485 61.2860 324.9963 12.3275 355.6892 321.5347 89.8565 354.7386 351.9331 26.5670 356.4045 344.8927 38.3059 50.1113 13.2804 337.1530 352.2490 37.2285 269.1716 354.2697 5.0016 352.1423 351.0364 2.8054 355.9552 10.8331 4.9585 359.9780 352.9985 14.1296 351.9801 349.2245 2.3000 12.6110 31.2283 17.4891 348.9196 333.6625 310.5952 
-7.8795 91.0001 88.2849 355.8270 350.0682 190.1759 358.1434 349.5116 0.1904 2.5395 17.0120 359.9993 352.8985 353.6477 355.1854 4.5052 15.8010 354.9484 339.9501 357.5110 13.9789 331.7527 61.0797 325.0687 12.3906 355.6223 321.3317 89.9794 354.7776 351.8572 26.6555 356.4136 344.9636 38.3890 50.0836 13.0800 337.1626 352.2371 37.2386 269.4539 354.1667 5.2478 352.1215 351.3064 2.8249 355.8439 10.7357 4.9671 0.0804 352.8815 14.1849 351.8301 348.7927 2.2433 12.8088 32.3613 17.2545 349.2603 333.5663 310.8580 
-8.0305 90.9510 88.0976 355.8081 350.0696 190.0985 358.0896 349.4918 0.1260 2.3865 17.1048 359.9403 352.8963 353.8035 355.2525 4.5056 15.6241 355.0127 339.8853 357.5073 13.9571 332.0949 60.8679 324.8484 12.4295 355.5710 321.0958 90.1170 354.8210 352.0368 26.7577 356.4166 344.9834 38.4746 50.0538 12.9770 337.1564 352.2302 37.2144 269.6293 354.0118 5.3185 352.0674 351.4985 2.7469 355.7510 10.6648 5.0252 0.2161 352.7740 14.2120 351.6264 348.3036 2.2311 13.2368 33.4291 16.6172 349.8204 333.3618 311.2316 
-8.1636 90.9015 87.9133 355.7760 350.1049 189.9533 357.9873 349.5320 0.0951 2.3195 17.1642 359.9262 352.7567 353.9247 355.3896 4.4891 15.5833 355.1553 339.7777 357.4846 14.0003 332.3043 60.6836 324.7340 12.5250 355.5170 320.8877 90.1974 354.8480 352.1132 26.7654 356.4193 345.0336 38.5021 50.2889 12.9810 337.0039 352.1694 37.0750 269.7439 353.9826 5.3449 352.0539 351.7192 2.8326 355.6200 10.6089 4.9919 0.3956 352.6430 14.2577 351.4038 347.7679 2.3108 13.6590 34.6167 16.0734 350.3699 333.3372 311.6118 
